<svg width="22" height="22" viewBox="0 0 22 22" fill="none" xmlns="http://www.w3.org/2000/svg">
<g clip-path="url(#clip0_262_179)">
<path d="M2.3572 3.14279C1.94043 3.14279 1.54073 3.30835 1.24603 3.60305C0.951327 3.89775 0.785767 4.29745 0.785767 4.71422V19.6428C0.785767 20.0596 0.951327 20.4593 1.24603 20.754C1.54073 21.0487 1.94043 21.2142 2.3572 21.2142H19.6429C20.0597 21.2142 20.4594 21.0487 20.7541 20.754C21.0488 20.4593 21.2143 20.0596 21.2143 19.6428V4.71422C21.2143 4.29745 21.0488 3.89775 20.7541 3.60305C20.4594 3.30835 20.0597 3.14279 19.6429 3.14279H16.5001M5.50005 0.785645V5.49993M16.5001 0.785645V5.49993M5.50005 3.14279H13.3572" stroke="#1C274C" stroke-width="2" stroke-linecap="round" stroke-linejoin="round"/>
<path d="M9.72406 7.16895C9.51568 7.16895 9.31583 7.25173 9.16848 7.39908C9.02113 7.54643 8.93835 7.74628 8.93835 7.95466V10.1641H6.72578C6.51739 10.1641 6.31754 10.2469 6.17019 10.3942C6.02284 10.5416 5.94006 10.7414 5.94006 10.9498V13.5034C5.94006 13.7118 6.02284 13.9116 6.17019 14.059C6.31754 14.2063 6.51739 14.2891 6.72578 14.2891H8.93678V16.4985C8.93678 16.7069 9.01956 16.9068 9.16691 17.0541C9.31426 17.2015 9.51411 17.2842 9.72249 17.2842H12.2761C12.3792 17.2842 12.4814 17.2639 12.5767 17.2244C12.6721 17.1849 12.7587 17.1271 12.8316 17.0541C12.9046 16.9811 12.9625 16.8945 13.002 16.7992C13.0415 16.7039 13.0618 16.6017 13.0618 16.4985V14.2891H15.2712C15.4796 14.2891 15.6794 14.2063 15.8268 14.059C15.9741 13.9116 16.0569 13.7118 16.0569 13.5034V10.9498C16.0569 10.7414 15.9741 10.5416 15.8268 10.3942C15.6794 10.2469 15.4796 10.1641 15.2712 10.1641H13.0633V7.95466C13.0633 7.74628 12.9806 7.54643 12.8332 7.39908C12.6859 7.25173 12.486 7.16895 12.2776 7.16895H9.72406Z" stroke="#1C274C" stroke-width="1.5" stroke-linecap="round" stroke-linejoin="round"/>
</g>
<defs>
<clipPath id="clip0_262_179">
<rect width="22" height="22" fill="white"/>
</clipPath>
</defs>
</svg>
