<svg width="191" height="57" viewBox="0 0 191 57" fill="none" xmlns="http://www.w3.org/2000/svg">
<path fill-rule="evenodd" clip-rule="evenodd" d="M25.5312 4.75H30.2812C34.7605 4.75 36.9977 4.75 38.3895 6.14175C39.7812 7.5335 39.7812 9.77075 39.7812 14.25V50.4687H51.6562C52.1287 50.4687 52.5817 50.6564 52.9158 50.9904C53.2498 51.3245 53.4375 51.7776 53.4375 52.25C53.4375 52.7224 53.2498 53.1755 52.9158 53.5095C52.5817 53.8436 52.1287 54.0312 51.6562 54.0312H4.15625C3.68383 54.0312 3.23077 53.8436 2.89672 53.5095C2.56267 53.1755 2.375 52.7224 2.375 52.25C2.375 51.7776 2.56267 51.3245 2.89672 50.9904C3.23077 50.6564 3.68383 50.4687 4.15625 50.4687H16.0312V14.25C16.0312 9.77075 16.0312 7.5335 17.423 6.14175C18.8147 4.75 21.052 4.75 25.5312 4.75ZM27.9062 10.0937C28.3787 10.0937 28.8317 10.2814 29.1658 10.6155C29.4998 10.9495 29.6875 11.4026 29.6875 11.875V14.8437H32.6562C33.1287 14.8437 33.5817 15.0314 33.9158 15.3655C34.2498 15.6995 34.4375 16.1526 34.4375 16.625C34.4375 17.0974 34.2498 17.5505 33.9158 17.8845C33.5817 18.2186 33.1287 18.4062 32.6562 18.4062H29.6875V21.375C29.6875 21.8474 29.4998 22.3005 29.1658 22.6345C28.8317 22.9686 28.3787 23.1562 27.9062 23.1562C27.4338 23.1562 26.9808 22.9686 26.6467 22.6345C26.3127 22.3005 26.125 21.8474 26.125 21.375V18.4062H23.1562C22.6838 18.4062 22.2308 18.2186 21.8967 17.8845C21.5627 17.5505 21.375 17.0974 21.375 16.625C21.375 16.1526 21.5627 15.6995 21.8967 15.3655C22.2308 15.0314 22.6838 14.8437 23.1562 14.8437H26.125V11.875C26.125 11.4026 26.3127 10.9495 26.6467 10.6155C26.9808 10.2814 27.4338 10.0937 27.9062 10.0937ZM21.375 28.5C21.375 28.0276 21.5627 27.5745 21.8967 27.2405C22.2308 26.9064 22.6838 26.7187 23.1562 26.7187H32.6562C33.1287 26.7187 33.5817 26.9064 33.9158 27.2405C34.2498 27.5745 34.4375 28.0276 34.4375 28.5C34.4375 28.9724 34.2498 29.4255 33.9158 29.7595C33.5817 30.0936 33.1287 30.2812 32.6562 30.2812H23.1562C22.6838 30.2812 22.2308 30.0936 21.8967 29.7595C21.5627 29.4255 21.375 28.9724 21.375 28.5ZM21.375 35.625C21.375 35.1526 21.5627 34.6995 21.8967 34.3655C22.2308 34.0314 22.6838 33.8437 23.1562 33.8437H32.6562C33.1287 33.8437 33.5817 34.0314 33.9158 34.3655C34.2498 34.6995 34.4375 35.1526 34.4375 35.625C34.4375 36.0974 34.2498 36.5505 33.9158 36.8845C33.5817 37.2186 33.1287 37.4062 32.6562 37.4062H23.1562C22.6838 37.4062 22.2308 37.2186 21.8967 36.8845C21.5627 36.5505 21.375 36.0974 21.375 35.625ZM27.9062 43.3437C28.3787 43.3437 28.8317 43.5314 29.1658 43.8654C29.4998 44.1995 29.6875 44.6526 29.6875 45.125V50.4687H26.125V45.125C26.125 44.6526 26.3127 44.1995 26.6467 43.8654C26.9808 43.5314 27.4338 43.3437 27.9062 43.3437Z" fill="#213448"/>
<path opacity="0.5" d="M49.6684 13.9864C50.4687 15.1834 50.4687 16.8506 50.4687 20.1875V50.4687H51.6562C52.1287 50.4687 52.5817 50.6564 52.9158 50.9904C53.2498 51.3245 53.4375 51.7776 53.4375 52.25C53.4375 52.7224 53.2498 53.1755 52.9158 53.5095C52.5817 53.8436 52.1287 54.0312 51.6562 54.0312H4.15625C3.68383 54.0312 3.23077 53.8436 2.89672 53.5095C2.56267 53.1755 2.375 52.7224 2.375 52.25C2.375 51.7776 2.56267 51.3245 2.89672 50.9904C3.23077 50.6564 3.68383 50.4687 4.15625 50.4687H5.34375V20.1875C5.34375 16.8506 5.34375 15.1834 6.14412 13.9864C6.49077 13.4675 6.93625 13.022 7.45512 12.6754C8.5025 11.9747 13.4805 11.8869 16.0479 11.8774C16.04 12.5693 16.0368 13.2897 16.0384 14.0386V17.2187H10.0937C9.62133 17.2187 9.16826 17.4064 8.83421 17.7405C8.50016 18.0745 8.3125 18.5276 8.3125 19C8.3125 19.4724 8.50016 19.9255 8.83421 20.2595C9.16826 20.5936 9.62133 20.7812 10.0937 20.7812H16.0384V24.3437H10.0937C9.62133 24.3437 9.16826 24.5314 8.83421 24.8655C8.50016 25.1995 8.3125 25.6526 8.3125 26.125C8.3125 26.5974 8.50016 27.0505 8.83421 27.3845C9.16826 27.7186 9.62133 27.9062 10.0937 27.9062H16.0384V31.4687H10.0937C9.62133 31.4687 9.16826 31.6564 8.83421 31.9905C8.50016 32.3245 8.3125 32.7776 8.3125 33.25C8.3125 33.7224 8.50016 34.1755 8.83421 34.5095C9.16826 34.8436 9.62133 35.0312 10.0937 35.0312H16.0384V50.4687H39.7884V35.0312H45.7187C46.1912 35.0312 46.6442 34.8436 46.9783 34.5095C47.3123 34.1755 47.5 33.7224 47.5 33.25C47.5 32.7776 47.3123 32.3245 46.9783 31.9905C46.6442 31.6564 46.1912 31.4687 45.7187 31.4687H39.7884V27.9062H45.7187C46.1912 27.9062 46.6442 27.7186 46.9783 27.3845C47.3123 27.0505 47.5 26.5974 47.5 26.125C47.5 25.6526 47.3123 25.1995 46.9783 24.8655C46.6442 24.5314 46.1912 24.3437 45.7187 24.3437H39.7884V20.7812H45.7187C46.1912 20.7812 46.6442 20.5936 46.9783 20.2595C47.3123 19.9255 47.5 19.4724 47.5 19C47.5 18.5276 47.3123 18.0745 46.9783 17.7405C46.6442 17.4064 46.1912 17.2187 45.7187 17.2187H39.7884V14.0362C39.7899 13.2905 39.7868 12.5701 39.7789 11.875C42.3462 11.8869 47.3076 11.9747 48.3574 12.6754C48.8762 13.022 49.3217 13.4675 49.6684 13.9864Z" fill="#547792"/>
<path d="M66.448 41V17.098H71.072V41H66.448ZM81.442 41V17.098H86.066V41H81.442ZM69.372 30.698V26.618H82.734V30.698H69.372ZM98.3299 41.34C96.6072 41.34 95.0772 40.9773 93.7399 40.252C92.4026 39.504 91.3372 38.484 90.5439 37.192C89.7732 35.9 89.3879 34.4267 89.3879 32.772C89.3879 31.14 89.7619 29.6893 90.5099 28.42C91.2806 27.128 92.3232 26.108 93.6379 25.36C94.9526 24.5893 96.4146 24.204 98.0239 24.204C99.6106 24.204 101.005 24.5667 102.206 25.292C103.43 25.9947 104.382 26.9693 105.062 28.216C105.765 29.44 106.116 30.834 106.116 32.398C106.116 32.6927 106.093 32.9987 106.048 33.316C106.025 33.6107 105.969 33.9507 105.878 34.336L92.0739 34.37V31.038L103.804 31.004L102.002 32.398C101.957 31.4233 101.775 30.6073 101.458 29.95C101.163 29.2927 100.721 28.794 100.132 28.454C99.5652 28.0913 98.8626 27.91 98.0239 27.91C97.1399 27.91 96.3692 28.114 95.7119 28.522C95.0546 28.9073 94.5446 29.4627 94.1819 30.188C93.8419 30.8907 93.6719 31.7293 93.6719 32.704C93.6719 33.7013 93.8532 34.574 94.2159 35.322C94.6012 36.0473 95.1452 36.614 95.8479 37.022C96.5506 37.4073 97.3666 37.6 98.2959 37.6C99.1346 37.6 99.8939 37.464 100.574 37.192C101.254 36.8973 101.843 36.4667 102.342 35.9L104.96 38.518C104.167 39.4473 103.192 40.15 102.036 40.626C100.903 41.102 99.6672 41.34 98.3299 41.34ZM108.87 41V16.418H113.324V41H108.87ZM117.271 41V16.418H121.725V41H117.271ZM133.389 41.34C131.735 41.34 130.239 40.966 128.901 40.218C127.587 39.4473 126.533 38.416 125.739 37.124C124.969 35.8093 124.583 34.3473 124.583 32.738C124.583 31.1287 124.969 29.6893 125.739 28.42C126.51 27.128 127.564 26.108 128.901 25.36C130.239 24.5893 131.723 24.204 133.355 24.204C135.033 24.204 136.529 24.5893 137.843 25.36C139.181 26.108 140.235 27.128 141.005 28.42C141.776 29.6893 142.161 31.1287 142.161 32.738C142.161 34.3473 141.776 35.8093 141.005 37.124C140.235 38.416 139.181 39.4473 137.843 40.218C136.529 40.966 135.044 41.34 133.389 41.34ZM133.355 37.192C134.194 37.192 134.931 37.0107 135.565 36.648C136.223 36.2627 136.721 35.7413 137.061 35.084C137.424 34.404 137.605 33.6333 137.605 32.772C137.605 31.9107 137.424 31.1513 137.061 30.494C136.699 29.8367 136.2 29.3267 135.565 28.964C134.931 28.5787 134.194 28.386 133.355 28.386C132.539 28.386 131.814 28.5787 131.179 28.964C130.545 29.3267 130.046 29.8367 129.683 30.494C129.321 31.1513 129.139 31.9107 129.139 32.772C129.139 33.6333 129.321 34.404 129.683 35.084C130.046 35.7413 130.545 36.2627 131.179 36.648C131.814 37.0107 132.539 37.192 133.355 37.192ZM148.667 41V36.886H154.753C156.294 36.886 157.643 36.5687 158.799 35.934C159.955 35.2767 160.85 34.3587 161.485 33.18C162.142 32.0013 162.471 30.6073 162.471 28.998C162.471 27.434 162.142 26.074 161.485 24.918C160.827 23.7393 159.921 22.8327 158.765 22.198C157.609 21.5407 156.271 21.212 154.753 21.212H148.565V17.098H154.821C156.589 17.098 158.221 17.3927 159.717 17.982C161.235 18.5713 162.55 19.41 163.661 20.498C164.794 21.5633 165.667 22.8213 166.279 24.272C166.913 25.7227 167.231 27.3093 167.231 29.032C167.231 30.7547 166.913 32.3527 166.279 33.826C165.667 35.2767 164.805 36.546 163.695 37.634C162.584 38.6993 161.269 39.5267 159.751 40.116C158.255 40.7053 156.634 41 154.889 41H148.667ZM145.505 41V17.098H150.129V41H145.505ZM170.429 41V24.578H174.883V41H170.429ZM174.883 31.922L173.149 30.766C173.353 28.7487 173.942 27.162 174.917 26.006C175.892 24.8273 177.297 24.238 179.133 24.238C179.926 24.238 180.64 24.374 181.275 24.646C181.91 24.8953 182.488 25.3147 183.009 25.904L180.221 29.1C179.972 28.828 179.666 28.624 179.303 28.488C178.963 28.352 178.566 28.284 178.113 28.284C177.161 28.284 176.379 28.59 175.767 29.202C175.178 29.7913 174.883 30.698 174.883 31.922ZM185.575 41.34C184.759 41.34 184.09 41.068 183.569 40.524C183.048 39.98 182.787 39.3113 182.787 38.518C182.787 37.7247 183.048 37.056 183.569 36.512C184.09 35.968 184.759 35.696 185.575 35.696C186.368 35.696 187.026 35.968 187.547 36.512C188.068 37.056 188.329 37.7247 188.329 38.518C188.329 39.3113 188.068 39.98 187.547 40.524C187.026 41.068 186.368 41.34 185.575 41.34Z" fill="#213448"/>
</svg>
